<?xml version="1.0" encoding="UTF-8" standalone="no"?>
<!-- Created with Inkscape (http://www.inkscape.org/) -->

<svg
   xmlns:dc="http://purl.org/dc/elements/1.1/"
   xmlns:cc="http://creativecommons.org/ns#"
   xmlns:rdf="http://www.w3.org/1999/02/22-rdf-syntax-ns#"
   xmlns:svg="http://www.w3.org/2000/svg"
   xmlns="http://www.w3.org/2000/svg"
   xmlns:sodipodi="http://sodipodi.sourceforge.net/DTD/sodipodi-0.dtd"
   xmlns:inkscape="http://www.inkscape.org/namespaces/inkscape"
   id="svg2"
   height="532.2"
   width="455.86"
   version="1.1"
   sodipodi:docname="logo_kemenkumham.svg"
   inkscape:version="0.92.0 r15299">
  <defs
     id="defs9" />
  <sodipodi:namedview
     pagecolor="#ffffff"
     bordercolor="#666666"
     borderopacity="1"
     objecttolerance="10"
     gridtolerance="10"
     guidetolerance="10"
     inkscape:pageopacity="0"
     inkscape:pageshadow="2"
     inkscape:window-width="1366"
     inkscape:window-height="715"
     id="namedview7"
     showgrid="false"
     inkscape:zoom="0.62712212"
     inkscape:cx="298.43256"
     inkscape:cy="217.93045"
     inkscape:window-x="-8"
     inkscape:window-y="-8"
     inkscape:window-maximized="1"
     inkscape:current-layer="svg2" />
  <metadata
     id="metadata8">
    <rdf:RDF>
      <cc:Work
         rdf:about="">
        <dc:format>image/svg+xml</dc:format>
        <dc:type
           rdf:resource="http://purl.org/dc/dcmitype/StillImage" />
        <dc:title></dc:title>
      </cc:Work>
    </rdf:RDF>
  </metadata>
  <g
     id="g3013"
     transform="matrix(1.0266218,0,0,0.93736429,-7.3142357,4.315316)"
     inkscape:export-xdpi="100.25497"
     inkscape:export-ydpi="100.25497">
    <path
       id="path3017"
       d="M 14.932,533.73 C 10.826,530.97 7.3442,525.99 5.9881,520.96 5.3207,518.48 5.0682,433.03 5.2402,267.86 5.4916,26.61 5.5607,18.39 7.367,15 c 1.0268,-1.925 2.827,-4.555 4,-5.845 C 16.368,3.6569 1.6105,4 233.107,4 h 214.21 l 4.0986,2.4019 c 2.3872,1.399 5.138,4.2175 6.5879,6.75 l 2.49,4.348 0.2578,250.36 c 0.18267,177.4 -0.058,251.54 -0.82583,254.39 -0.6337,2.3534 -2.8927,5.939 -5.4407,8.6358 l -4.36,4.61 -215.91,0.26 -215.9,0.25 -3.384,-2.28 z m 69.205,-17.47 c 3.731,-2.2 4.355,-4.53 4.359,-16.26 l 0.0037,-9.5 -3.75,-0.31037 -3.75,-0.31036 v 7.9953 c 0,10.35 -1.027,13.12 -4.868,13.12 -3.739,0 -4.132,-1.15 -4.132,-12.08 v -8.92 h -4 -4 v 9.9349 c 0,11.465 0.82911,14.368 4.7039,16.469 3.8333,2.0784 11.797,2.0042 15.433,-0.14381 z m 56.866,0.23832 c 3.7373,-1.9326 4.9841,-6.3661 4.9913,-17.748 l 0.01,-8.75 h -4 -4 v 8.5657 c 0,9.56 -1,12.43 -4.34,12.43 -3.94,0 -4.66,-1.82 -4.66,-11.7 v -9.3 h -4 -4 l 0.0354,10.25 c 0.0381,11.017 0.9921,14.092 5.0746,16.354 3.2346,1.7928 11.332,1.7351 14.893,-0.10609 z m -99.908,-1.75 c 0.36063,-8.8301 -0.0052,-8.2235 5.1581,-8.5548 l 4.75,-0.30479 v 5.5548 5.5548 h 4 4 v -13.5 -13.5 h -4 -4 v 5 5 h -4.393 c -4.855,0 -5.607,-0.88 -5.607,-6.58 0,-3.24 -0.183,-3.42 -3.5,-3.42 h -3.5 v 13.5 13.5 h 3.5 c 2.9357,0 3.5148,-0.36274 3.5919,-2.25 z m 60.345,-3 c -0.0346,-2.6125 0.23251,-4.75 0.59349,-4.75 0.36099,0 2.1893,2.2491 4.0628,4.9981 3.2831,4.817 3.5785,4.9981 8.1565,5 2.6125,0.001 4.75,-0.23273 4.75,-0.51954 0,-0.2868 -2.2855,-3.4297 -5.0788,-6.9841 l -5.0788,-6.4627 4.5788,-5.8281 c 2.52,-3.21 4.58,-6.14 4.58,-6.52 0,-0.38 -1.98,-0.69 -4.4,-0.69 -4.2086,0 -4.5386,0.22315 -7.75,5.2414 l -3.35,5.24 -0.3,-5.24 -0.3,-5.24 h -3.952 -3.948 v 13.56 13.56 l 3.75,-0.31036 3.75,-0.31037 -0.0628,-4.75 z m 55.681,1.5 c 0.1611,-5.106 1.29,-9.9711 2.0304,-8.75 0.33348,0.55 1.349,3.5875 2.2567,6.75 1.5122,5.2685 1.889,5.75 4.4997,5.75 2.6861,0 2.9525,-0.39799 4.6514,-6.9482 1.8655,-7.1925 3.4435,-8.3921 3.4435,-2.6178 0,1.8238 0.28125,4.7222 0.625,6.441 0.55185,2.7593 1.02,3.125 4,3.125 4.05,0 4.0789,-0.30712 1.5026,-16 l -1.7238,-10.5 -4.04,-0.29959 -4.04,-0.29959 -1.8042,6.7996 c -0.9923,3.7398 -2.04,7.2152 -2.3281,7.7232 -0.28818,0.50797 -1.5069,-2.417 -2.7084,-6.5 l -2.18,-7.42 -4.1493,-0.3075 c -2.2821,-0.16912 -4.1511,0.0559 -4.1533,0.5 -0.004,0.78229 -2.4059,16.464 -3.5317,23.058 -0.55024,3.2225 -0.52073,3.25 3.4904,3.25 3.9869,0 4.047,-0.0542 4.1636,-3.75 z m 58.785,2.4853 c 5.9836,-3.0751 8.8386,-12.465 5.6592,-18.614 -2.7101,-5.2407 -6.8705,-7.1134 -15.813,-7.1178 l -7.75,-0.01 v 13.5 13.5 l 7.75,-0.0147 c 4.2625,-0.008 8.8316,-0.57061 10.154,-1.25 z m -9.9,-12.35 v -7.6084 l 2.75,0.68632 c 4.1316,1.0311 6.25,3.442 6.25,7.1129 0,3.57 -3.7,7.42 -7.13,7.42 -1.66,0 -1.87,-0.85 -1.87,-7.61 z m 25.5,11.61 c 0.5299,-1.6696 1.513,-2 5.9508,-2 4.475,0 5.3987,0.31641 5.839,2 0.40061,1.532 1.364,2 4.1166,2 1.9765,0 3.6093,-0.3375 3.6284,-0.75 0.0192,-0.4125 -1.8864,-6.4875 -4.2346,-13.5 l -4.2694,-12.75 -5.0154,0.003 -5.0154,0.003 -4.25,12.313 c -2.3375,6.772 -4.25,12.846 -4.25,13.497 0,0.682 1.4553,1.184 3.4326,1.184 2.5544,0 3.595,-0.51171 4.0674,-2 z m 3.3002,-8.5331 c -0.34373,-0.34372 0.0908,-2.7254 0.96549,-5.2926 l 1.5904,-4.6677 1.2217,2.9967 c 2.2712,5.5712 2.1532,6.9698 -0.61524,7.2926 -1.3956,0.16275 -2.8186,0.0147 -3.1624,-0.32904 z m 26.5,7.78 c 0.29307,-1.5125 0.28285,-4.8875 -0.0227,-7.5 -0.30556,-2.6125 -0.15538,-4.7303 0.33373,-4.7062 0.48911,0.0241 3.1577,3.2866 5.9302,7.25 4.7638,6.8101 5.2723,7.2231 9.25,7.5137 l 4.21,0.32 v -13.56 -13.56 h -4.079 -4.079 l 0.32901,7.5023 c 0.18095,4.1263 0.0852,7.5013 -0.21271,7.5 -0.3,0 -2.98,-3.38 -5.96,-7.5 -5.1,-7.06 -5.64,-7.5 -9.21,-7.5 h -3.79 v 13.5 13.5 h 3.3834 c 2.8952,0 3.4603,-0.39685 3.9163,-2.75 z m 44.898,-2.5 0.30226,-5.25 4.25,-0.3075 4.25,-0.3075 v 5.5575 5.5575 h 4 4 v -13.5 -13.5 h -4 -4 v 5 5 h -4.5 -4.5 v -5 -5 h -4 -4 v 13.5 13.5 h 3.9477 3.9477 l 0.30226,-5.25 z m 27.8,3.25 c 0,-1.7546 0.66667,-2 5.4326,-2 4.5544,0 5.5352,0.32333 6.0674,2 0.56332,1.7749 1.513,2 8.4366,2 h 7.8018 l 0.61983,-3.75 c 0.34091,-2.0625 0.62479,-4.9875 0.63084,-6.5 0.006,-1.5125 0.46101,-2.75 1.011,-2.75 0.55,0 1,0.49324 1,1.0961 0,0.60285 0.70693,3.5278 1.571,6.5 1.4129,4.8603 1.8497,5.4039 4.3417,5.4039 2.5372,0 2.9248,-0.52684 4.5981,-6.25 2.2295,-7.6254 3.4856,-9.312 3.5003,-4.7 0.006,1.8975 0.28993,5.1375 0.63084,7.2 0.59393,3.5933 0.78434,3.75 4.5564,3.75 3.2769,0 3.851,-0.29325 3.4261,-1.75 -0.28076,-0.9625 -1.2898,-7.0595 -2.2424,-13.549 l -1.7319,-11.799 -4.0743,0.29895 -4.0743,0.29895 -1.9356,6.75 c -1.0646,3.7125 -2.2472,6.75 -2.628,6.75 -0.38078,0 -1.5093,-3.15 -2.5079,-7 l -1.8156,-7 h -4.1616 -4.1616 l -1.811,12.5 c -0.99606,6.875 -2.1376,12.5 -2.5368,12.5 -0.39917,0 -2.6486,-5.646 -4.9988,-12.547 l -4.273,-12.547 -5.0137,0.29656 -5.0137,0.29657 -4.2695,12 c -2.3482,6.6 -4.2932,12.562 -4.3221,13.25 -0.0337,0.80043 1.386,1.25 3.9474,1.25 3.3333,0 4,-0.33333 4,-2 z m 3.0761,-9.6836 c 0.0418,-0.99903 0.66457,-3.3914 1.3838,-5.3164 l 1.3078,-3.5 1.0227,2.5692 c 0.56247,1.4131 1.1772,3.6631 1.3662,5 0.28426,2.0116 -0.13069,2.4854 -2.4065,2.7472 -2.1273,0.24478 -2.7328,-0.0949 -2.6739,-1.5 z m 73.31,7.4336 c -0.0627,-2.0625 0.1919,-3.75 0.56586,-3.75 0.37395,0 1.6916,1.8 2.928,4 2.0978,3.7325 2.5463,4 6.7072,4 h 4.4591 l -1.7293,-2.75 c -0.95112,-1.5125 -2.4945,-3.7698 -3.4298,-5.0163 -1.6424,-2.1889 -1.597,-2.3699 1.3296,-5.2964 2.6171,-2.6171 2.9493,-3.5348 2.4372,-6.7337 -0.94,-5.74 -3.52,-7.2 -12.78,-7.2 h -7.89 v 13.56 13.56 l 3.75,-0.31036 c 3.6352,-0.30087 3.7465,-0.42517 3.6359,-4.0604 z m 0.61,-13.32 c 0,-3.1254 0.2787,-3.5298 2.2398,-3.25 2.84,0.40519 3.5586,3.7626 1.1778,5.5034 -2.78,2.04 -3.42,1.61 -3.42,-2.25 z m 25,4.012 v -13.558 l -4.0833,0.3075 -4.0833,0.3075 -0.32506,9.5 c -0.17878,5.225 -0.0838,11.188 0.21113,13.25 0.51408,3.5954 0.69583,3.75 4.4084,3.75 h 3.87 v -13.56 z m -345.81,-27.63 0.307,-4.2 2.7642,4.1934 c 2.369,3.5939 3.2625,4.1934 6.25,4.1934 1.9172,0 3.4814,-0.3375 3.4761,-0.75 -0.005,-0.4125 -1.5803,-2.7258 -3.5,-5.1407 -1.919,-2.41 -3.49,-4.73 -3.49,-5.16 0,-0.43039 1.0232,-2.0546 2.2737,-3.6093 5.436,-6.76 5.366,-6.33 1.076,-6.33 -3.4258,0 -4.1221,0.42166 -5.7799,3.5 -1.0367,1.925 -2.264,3.5 -2.7274,3.5 -0.464,0 -0.843,-1.58 -0.843,-3.5 0,-3.22 -0.238,-3.5 -3,-3.5 h -3 v 10.5 10.5 h 2.9425 c 2.74,0 2.9637,-0.28861 3.25,-4.1934 z m 36.807,1.69 c 0,-2.1905 -0.43333,-2.5 -3.5,-2.5 -2.4444,0 -3.5,-0.45238 -3.5,-1.5 0,-1.04762 1.0556,-1.5 3.5,-1.5 3.0667,0 3.5,-0.30952 3.5,-2.5 0,-2.19048 -0.43333,-2.5 -3.5,-2.5 -2.4444,0 -3.5,-0.45238 -3.5,-1.5 0,-1.04762 1.0556,-1.5 3.5,-1.5 3.0667,0 3.5,-0.30952 3.5,-2.5 0,-2.4103 -0.23333,-2.5 -6.5,-2.5 h -6.5 v 10.5 10.5 h 6.5 c 6.2667,0 6.5,-0.0897 6.5,-2.5 z m 17.59,-2.5 c 0.63,-4.75 2.41,-7.08 2.41,-3.15 0,1.0179 0.50253,3.2923 1.1167,5.0542 0.84539,2.4251 1.6279,3.1296 3.2205,2.8992 1.5728,-0.22746 2.4689,-1.5661 3.5505,-5.3042 1.3092,-4.5245 1.5164,-4.7623 2.1798,-2.5 0.40319,1.375 0.77793,3.7375 0.83275,5.25 0.0858,2.3667 0.51778,2.75 3.0997,2.75 1.65,0 2.9921,-0.3375 2.9825,-0.75 -0.01,-0.4125 -0.68289,-4.8 -1.4962,-9.75 -0.81331,-4.95 -1.4804,-9.366 -1.4825,-9.8134 -0.002,-0.44735 -1.4467,-0.67235 -3.2103,-0.5 -2.8658,0.28007 -3.3626,0.81798 -4.6756,5.0634 -0.808,2.6125 -1.7952,4.75 -2.1938,4.75 -0.39858,0 -1.2645,-2.25 -1.9242,-5 -1.1333,-4.7241 -1.3782,-5 -4.4387,-5 h -3.2392 l -1.2398,8.75 c -0.68187,4.8125 -1.4597,9.5375 -1.7284,10.5 -0.38795,1.3894 0.13631,1.75 2.5443,1.75 2.8844,0 3.0654,-0.24483 3.6962,-5 z m 44.41,2.5 c 0,-2.1905 -0.43333,-2.5 -3.5,-2.5 -2.4444,0 -3.5,-0.45238 -3.5,-1.5 0,-1.04762 1.0556,-1.5 3.5,-1.5 3.0667,0 3.5,-0.30952 3.5,-2.5 0,-2.19048 -0.43333,-2.5 -3.5,-2.5 -2.4444,0 -3.5,-0.45238 -3.5,-1.5 0,-1.04762 1.0556,-1.5 3.5,-1.5 3.0667,0 3.5,-0.30952 3.5,-2.5 0,-2.4103 -0.23333,-2.5 -6.5,-2.5 h -6.5 v 10.5 10.5 h 6.5 c 6.2667,0 6.5,-0.0897 6.5,-2.5 z m 18,-3 c 0,-3.025 0.3375,-5.4903 0.75,-5.4784 0.4125,0.0119 2.5162,2.4869 4.6748,5.5 3.1658,4.419 4.4712,5.4784 6.75,5.4784 h 2.8252 v -10.5 -10.5 h -3.0467 -3.0467 l 0.43873,5.0077 c 0.24131,2.7542 0.14728,5.1878 -0.20894,5.408 -0.35622,0.22016 -2.4269,-2.0548 -4.6015,-5.0554 -3.4687,-4.7864 -4.3268,-5.4192 -6.9944,-5.158 -3.0323,0.29694 -3.0402,0.31395 -2.9164,6.2977 0.31744,15.348 0.14923,14.5 2.8759,14.5 2.3636,0 2.5,-0.3 2.5,-5.5 z m 37.792,-2.75 c 0.26111,-6.9284 0.49964,-7.75 2.25,-7.75 1.4218,0 1.9579,-0.68457 1.9579,-2.5 0,-2.4444 -0.16667,-2.5 -7.5,-2.5 -7.2761,0 -7.5,0.0726 -7.5,2.4304 0,1.7591 0.62149,2.5187 2.25,2.75 2.0842,0.296 2.2716,0.89537 2.5432,8.1318 l 0.29319,7.8122 2.7068,-0.31225 c 2.6534,-0.3061 2.7126,-0.46509 2.9989,-8.0623 z m 29.21,5.75 c 0,-2.1905 -0.43333,-2.5 -3.5,-2.5 -2.4444,0 -3.5,-0.45238 -3.5,-1.5 0,-0.98652 0.98704,-1.5 2.8834,-1.5 2.0137,0 3.0366,-0.58576 3.3912,-1.9421 0.66,-2.5 0.03,-3.06 -3.44,-3.06 -1.85,0 -2.83,-0.52 -2.83,-1.5 0,-1.0476 1.0556,-1.5 3.5,-1.5 3.0667,0 3.5,-0.30952 3.5,-2.5 0,-2.4103 -0.23333,-2.5 -6.5,-2.5 h -6.5 v 10.5 10.5 h 6.5 c 6.2667,0 6.5,-0.0897 6.5,-2.5 z m 18.187,-0.75 0.31336,-3.25 1.9656,3.25 c 1.5773,2.608 2.6144,3.25 5.25,3.25 1.8064,0 3.2844,-0.29502 3.2844,-0.65561 0,-0.36058 -1.1748,-2.1958 -2.6106,-4.0784 l -2.6106,-3.4227 2.1106,-1.4784 c 1.44,-1 2.11,-2.55 2.11,-4.86 0,-4.67 -2.88,-6.5 -10.22,-6.5 h -5.78 v 10.5 10.5 h 2.9366 c 2.5822,0 2.9745,-0.39228 3.25,-3.25 z m 0.41113,-8.4856 c -1.44,-1.43 -0.51,-4.26 1.4,-4.26 1.2956,0 2,0.66667 2,1.893 0,1.8995 -2.2829,3.4907 -3.4022,2.3714 z m 28.18,1.49 -0.28,-10.25 -3.25,-0.31336 -3.25,-0.31336 v 10.563 10.563 h 3.535 3.535 l -0.28499,-10.25 z m 17.22,8.25 c 0.76251,-1.4248 2.0938,-2 4.6288,-2 2.7174,0 3.682,0.47268 4.0814,2 0.37046,1.4166 1.364,2 3.4064,2 1.5858,0 2.8679,-0.3375 2.849,-0.75 -0.0189,-0.4125 -1.5352,-5.025 -3.3694,-10.25 l -3.335,-9.5 -3.8948,-0.29598 -3.8948,-0.29597 -3.6993,10.546 -3.6993,10.546 h 2.9283 c 1.9048,0 3.3024,-0.69901 3.9987,-2 z m 2.6101,-8.75 c 0.55,-2.34 2.39,-5.57 2.39,-4.19 0,0.25113 0.41859,1.9161 0.93019,3.7 0.86849,3.0282 0.76771,3.2434 -1.519,3.2434 -2.1624,0 -2.3733,-0.32211 -1.8011,-2.75 z m 29.39,4.52 v -6.2321 l 2.6424,3.9821 c 4.357,6.566 6.5102,8.4821 9.5319,8.4821 h 2.8257 v -10.5 -10.5 h -2.9501 c -2.89,0 -2.9562,0.11717 -3.25,5.75 l -0.2999,5.75 -4.3702,-5.75 c -3.5396,-4.6573 -4.9174,-5.75 -7.25,-5.75 h -2.88 v 10.5 10.5 h 3 3 v -6.2321 z m -293.54,-308.5 c 1.399,-2.05 2.54,-4.03 2.54,-4.4 0,-0.36499 -2.2329,-2.0965 -4.9621,-3.8478 l -4.9621,-3.1842 2.6656,-4.1701 c 4.6077,-7.2082 3.0799,-14.297 -4.0458,-18.773 -3.89,-2.4431 -10.72,-2.0813 -13.861,0.73429 -2.5133,2.2526 -12.174,16.362 -11.597,16.939 0.49426,0.49425 31.174,20.391 31.477,20.414 0.11767,0.009 1.3552,-1.6633 2.75,-3.716 z m -18.21,-18.26 c -3.8875,-2.3746 -3.9745,-2.9854 -0.84435,-5.926 1.9903,-1.8698 2.7673,-2.0664 4.5,-1.1391 2.3499,1.2576 2.7536,4.7764 0.84435,7.3593 -1.1659,1.5772 -1.4688,1.5574 -4.5,-0.29417 z m 348.34,12.234 c 6.6487,-4.8118 13.381,-9.7124 14.961,-10.89 l 2.8726,-2.1415 -2.8472,-4.1085 c -1.56,-2.25 -3,-4.1 -3.2,-4.1 -0.19457,0 -4.2939,2.8895 -9.1096,6.421 -4.8157,3.5316 -8.83,6.3441 -8.9206,6.25 -0.0906,-0.0941 1.5927,-5.571 3.7408,-12.171 2.148,-6.6 3.9077,-12.569 3.9104,-13.264 0.007,-1.7982 -4.2947,-8.2088 -5.5182,-8.2236 -0.88875,-0.0108 -27.506,18.697 -29.842,20.975 -1.0075,0.98209 4.0494,8.0255 5.7341,7.9867 0.62222,-0.0143 4.6949,-2.7132 9.0504,-5.9976 4.3555,-3.2843 8.0507,-5.8399 8.2115,-5.6791 0.16082,0.16082 -1.4903,5.8189 -3.6691,12.574 -2.1788,6.7547 -3.9615,12.767 -3.9615,13.361 0,1.3124 4.822,7.7689 5.8009,7.7671 0.38451,-7e-4 6.139,-3.9382 12.788,-8.75 z m -305.68,-25.99 c 3.9,-4.26 7.09,-8.22 7.09,-8.81 0,-0.58591 -1.288,-2.0176 -2.8623,-3.1815 l -2.8623,-2.1162 -4.3528,4.4352 c -4.3167,4.3984 -4.369,4.419 -6.3043,2.4838 -1.9353,-1.9353 -1.9211,-1.9851 1.7152,-6.01 2.012,-2.23 3.662,-4.36 3.662,-4.74 0,-1.15 -4.281,-5.31 -5.471,-5.31 -0.61751,0 -2.8353,1.7538 -4.9284,3.8973 l -3.8056,3.8973 -2.0024,-2.0024 -2.0024,-2.0024 4.1051,-4.1828 c 2.257,-2.31 4.104,-4.6 4.104,-5.09 0,-1.27 -4.14,-5.53 -5.371,-5.53 -0.56248,0 -4.4804,3.7125 -8.7066,8.25 l -7.6839,8.25 13.131,12.702 c 7.222,6.986 13.651,12.724 14.287,12.75 0.63612,0.0265 4.3486,-3.4378 8.25,-7.6985 z m 277.65,-18.409 c 3.5666,-9.4606 6.1374,-17.507 5.713,-17.882 -0.42442,-0.37448 -2.6608,-2.3505 -4.9697,-4.3911 l -4.198,-3.7102 -8.302,4.932 c -10.12,6.0123 -25.141,15.248 -25.739,15.826 -0.69234,0.66886 6.2814,6.2954 7.8587,6.3405 0.78169,0.0224 2.2344,-0.69524 3.2282,-1.5946 1.6868,-1.5265 2.0502,-1.4434 5.463,1.25 8.4492,6.668 7.8681,5.8107 6.3777,9.409 -1.3159,3.1769 -1.2541,3.3463 2.464,6.7537 3.283,3.0087 3.9395,3.2705 4.7168,1.8815 0.49664,-0.88745 3.8211,-9.354 7.3877,-18.815 z m -13.963,-3.7448 -2.7788,-2.9005 6.0917,-4.1368 c 3.3504,-2.2752 6.093,-3.7825 6.0946,-3.3496 0.005,1.4719 -5.2996,13.287 -5.9658,13.287 -0.36459,0 -1.9134,-1.3052 -3.4417,-2.9004 z m -246.96,5.8189 c 1.8524,-1.1449 3.3671,-2.6074 3.366,-3.25 -0.001,-0.64264 -2.6843,-4.9728 -5.9626,-9.6225 -3.2784,-4.6497 -5.852,-8.5627 -5.7192,-8.6955 0.13282,-0.13282 5.9895,1.8033 13.015,4.3024 l 12.773,4.5439 3.9479,-2.6126 c 2.1714,-1.4369 3.9359,-3.1687 3.9213,-3.8484 -0.0147,-0.6797 -1.9272,-3.8004 -4.25,-6.935 -2.3228,-3.1345 -7.0568,-9.7529 -10.52,-14.707 l -6.2964,-9.0083 -3.9156,2.7074 c -2.1536,1.4891 -3.9327,3.0759 -3.9536,3.5263 -0.0209,0.4504 2.662,4.618 5.962,9.2613 3.3,4.6433 6,8.6739 6,8.9568 0,0.2829 -1.2375,-0.09281 -2.75,-0.83491 -1.5125,-0.7421 -7.3296,-2.8602 -12.927,-4.7069 l -10.177,-3.3576 -4.154,2.749 c -2.3037,1.5245 -3.9383,3.3113 -3.6696,4.0113 0.56735,1.4785 17.19,25.284 19.449,27.852 1.9133,2.1758 1.7929,2.1826 5.8609,-0.33156 z m 229.79,-28.07 c 2.9768,-8.964 5.1925,-16.654 4.9239,-17.088 -0.26859,-0.43459 -2.3637,-1.7469 -4.6559,-2.9163 l -4.1675,-2.1261 -7.7646,8.2814 c -7.8684,8.3921 -8.9432,8.5956 -6.85,1.2973 0.50302,-1.7539 1.2191,-6.0325 1.5913,-9.508 l 0.67671,-6.319 -4.1784,-2.3484 c -2.3347,-1.3122 -4.5548,-1.9676 -5.0315,-1.4854 -1.5088,1.5261 -21.943,29.842 -21.958,30.428 -0.0193,0.75705 6.7338,3.9438 8.2696,3.9024 0.66884,-0.01803 3.6505,-3.6211 6.626,-8.0067 2.9755,-4.3857 5.6003,-7.7836 5.8329,-7.551 0.38062,0.38062 -2.16,14.589 -3.3596,18.788 -0.33178,1.1615 0.52097,2.2182 2.6988,3.3444 l 3.1838,1.6464 7.922,-7.8444 7.922,-7.8444 -3.5675,9.9041 c -1.9621,5.4472 -3.4494,10.003 -3.3049,10.124 0.14442,0.12122 2.0626,1.1349 4.2626,2.2526 3.2152,1.6335 4.1488,1.7707 4.7582,0.69961 0.41702,-0.73293 3.1938,-8.6668 6.1705,-17.631 z m -176.93,-1.376 c 7.135,-3.4541 10.024,-8.0869 9.9162,-15.901 -0.0461,-3.3403 -0.58248,-7.2714 -1.192,-8.7357 l -1.1082,-2.6625 -9.308,3.5004 c -5.1194,1.9252 -9.4618,3.6521 -9.6498,3.8376 -0.61,0.603 2.22,7.488 3.07,7.488 0.45717,0 2.4467,-0.675 4.4212,-1.5 4.5305,-1.893 4.3458,-1.9281 4.3458,0.82569 0,1.2791 -1.0125,3.2708 -2.25,4.4259 -7.0754,6.6043 -16.505,1.8501 -17.532,-8.8392 -0.41076,-4.2749 -0.15436,-5.0676 2.4114,-7.4558 2.5516,-2.3749 3.4425,-2.614 8.0064,-2.1485 4.8105,0.49064 5.3391,0.31355 8.3563,-2.7994 l 3.221,-3.3232 -2.8163,-1.8427 c -1.9834,-1.2977 -4.6026,-1.8268 -8.8563,-1.789 -19.09,0.16991 -28.221,20.818 -15.037,34.002 6.8066,6.8066 14.127,7.697 23.997,2.9188 z m 118.27,-7.022 c 13.86,-5.792 16.37,-23.098 4.82,-33.242 -5.77,-5.06 -12.31,-6.279 -19.7,-3.671 -8.6,3.035 -12.89,9.367 -12.89,19.043 0,14.345 14.253,23.518 27.768,17.871 z m -11.77,-8.161 c -6.56,-2.414 -7.89,-11.879 -2.49,-17.712 1.82,-1.963 3.37,-2.579 6.49,-2.579 5.63,0 9,3.37 9,9.004 0,8.6561 -5.996,13.862 -13,11.286 z m -78.765,5.3149 c 0.40408,-0.60802 0.74158,-2.0877 0.75,-3.2881 0.0171,-2.4385 1.0622,-2.8758 9.03,-3.778 5.4447,-0.61654 5.5293,-0.58584 6.6631,2.4181 1.0066,2.6666 1.6225,3.0407 4.9853,3.0272 7.4155,-0.0296 7.3985,-0.1934 -2.0225,-19.513 l -8.6471,-17.732 -3.7467,0.61931 c -2.0607,0.34062 -4.9669,0.62426 -6.4582,0.63031 -2.2991,0.0093 -2.8519,0.5813 -3.635,3.761 -1.5624,6.3435 -7.1795,33.682 -7.1661,34.877 0.0162,1.4515 9.213,0.53461 10.247,-1.0217 z m 3.37,-19.856 c 1.2338,-9.5424 1.8358,-9.9682 4.7729,-3.3756 3.55,7.966 3.44,8.626 -1.41,8.626 h -4.0344 l 0.67883,-5.25 z m 43.406,10 0.016,-8.25 6.484,-9.8678 c 3.56,-5.427 6.48,-10.265 6.48,-10.75 0,-0.485 -2.62,-0.882 -5.83,-0.882 h -5.8291 l -2.3726,5.0656 c -1.3049,2.7861 -2.7256,5.2838 -3.1571,5.5504 -0.43145,0.26665 -2.0094,-2.0129 -3.5066,-5.0656 -2.5356,-5.1699 -2.965,-5.5514 -6.2639,-5.5641 -1.9479,-0.0075 -4.5542,-0.28499 -5.7917,-0.61663 -1.3073,-0.35033 -2.25,-0.1546 -2.25,0.46714 0,0.58857 2.7,5.5396 6,11.002 l 6,9.9321 v 8.6144 8.6144 h 5 5 l 0.016,-8.25 z"
       inkscape:connector-curvature="0"
       style="fill:#dbc01e" />
    <path
       id="path3015"
       d="M 14.922,533.73 C 10.325,530.63 7.3243,525.88 6.0438,519.69 5.2932,516.06 5.0507,440.08 5.2357,266.5 5.4914,26.58 5.5608,18.39 7.367,15 9.7864,10.464 12.829,7.1588 16.2,5.405 20.328,3.2573 445.75,3.3004 449.9,5.4489 c 4.0726,2.106 8.8305,7.9233 10.039,12.274 1.4687,5.2889 1.4687,499.27 0,504.55 -0.57693,2.0775 -2.4412,5.363 -4.1429,7.3011 -6.14,6.99 13.45,6.43 -223.1,6.43 h -214.4 l -3.374,-2.27 z m 69.215,-17.47 c 3.731,-2.2 4.355,-4.53 4.359,-16.26 l 0.0037,-9.5 -3.75,-0.31037 -3.75,-0.31036 v 7.9953 c 0,10.35 -1.027,13.12 -4.868,13.12 -3.739,0 -4.132,-1.15 -4.132,-12.08 v -8.92 h -4 -4 v 10.566 c 0,5.8112 0.46131,11.428 1.0251,12.481 2.5545,4.7732 13.388,6.5944 19.112,3.2131 z m 56.866,0.23832 c 3.7373,-1.9326 4.9841,-6.3661 4.9913,-17.748 l 0.01,-8.75 h -4 -4 v 8.5657 c 0,9.56 -1,12.43 -4.34,12.43 -3.94,0 -4.66,-1.82 -4.66,-11.7 v -9.3 h -4 -4 l 0.0354,10.25 c 0.0381,11.017 0.9921,14.092 5.0746,16.354 3.2346,1.7928 11.332,1.7351 14.893,-0.10609 z m -99.674,-3 c -0.38121,-6.573 0.3431,-7.6406 4.9571,-7.3059 l 4.217,0.31 0.30226,5.25 0.30226,5.25 h 3.9477 3.9477 v -13.5 -13.5 h -4 -4 v 5 5 h -4.5 c -2.475,0 -4.5562,-0.45 -4.625,-1 -0.06875,-0.55 -0.2375,-1.45 -0.375,-2 -0.1375,-0.55 -0.30625,-2.35 -0.375,-4 -0.11409,-2.7381 -0.43056,-3 -3.625,-3 h -3.5 v 13.56 13.56 l 3.75,-0.31036 c 3.477,-0.28778 3.7373,-0.52877 3.576,-3.3104 z m 60.481,-1.25 c 0.16912,-2.3375 0.61912,-4.2401 1,-4.228 0.38087,0.0121 2.0425,2.0361 3.6925,4.4978 2.8493,4.251 3.2386,4.476 7.75,4.478 2.6125,10e-4 4.75,-0.23248 4.75,-0.51929 0,-0.2868 -2.2855,-3.4297 -5.0788,-6.9841 l -5.0788,-6.4627 4.5788,-5.8281 c 2.52,-3.21 4.58,-6.14 4.58,-6.52 0,-0.38 -1.98,-0.69 -4.4,-0.69 -4.2086,0 -4.5386,0.22315 -7.75,5.2414 l -3.35,5.24 -0.3,-5.24 -0.3,-5.24 h -3.952 -3.948 v 13.56 13.56 l 3.75,-0.31036 c 3.64,-0.30127 3.759,-0.435 4.0575,-4.5604 z m 55.311,1 c 0.0651,-2.0625 0.44439,-5.1 0.84291,-6.75 0.79486,-3.2909 0.8878,-3.1532 3.5416,5.25 1.4753,4.6715 1.9633,5.25 4.4292,5.25 2.5724,0 2.9015,-0.48121 4.5871,-6.7083 1.9892,-7.3485 2.8106,-6.9443 3.9797,1.9583 0.60737,4.6248 0.71441,4.75 4.0625,4.75 4.1235,0 4.1495,-0.26521 1.5663,-16 l -1.7238,-10.5 -4.1065,-0.30284 -4.1065,-0.30284 -1.8168,7.0528 c -1,3.88 -2.1,7.05 -2.44,7.05 -0.34624,0 -1.5324,-3.0375 -2.6359,-6.75 l -2.0063,-6.75 -4.1426,-0.3075 c -2.2784,-0.16912 -4.1428,0.0559 -4.1429,0.5 -1.3e-4,0.44413 -0.8908,6.2075 -1.9793,12.808 -1.0885,6.6 -1.9884,12.338 -1.9998,12.75 -0.0114,0.4125 1.7793,0.75 3.9793,0.75 3.9345,0 4.0019,-0.0614 4.1183,-3.75 z m 58.785,2.4853 c 5.6942,-2.9264 8.8707,-13.042 5.8741,-18.705 -2.62,-4.97 -7.3,-7.04 -15.92,-7.04 h -7.85 v 13.5 13.5 l 7.75,-0.0147 c 4.2625,-0.008 8.8316,-0.57061 10.154,-1.25 z m -9.9,-12.24 v -7.7168 l 2.75,0.65105 c 3.5657,0.84416 6.25,4.0746 6.25,7.5216 0,3.1566 -2.316,5.5929 -6.25,6.5747 l -2.75,0.7 v -7.72 z m 25.5,11.5 c 0.5299,-1.6696 1.513,-2 5.9508,-2 4.475,0 5.3987,0.31641 5.839,2 0.40061,1.532 1.364,2 4.1166,2 1.9765,0 3.5936,-0.49751 3.5936,-1.1056 0,-0.60806 -1.905,-6.6831 -4.2334,-13.5 l -4.24,-12.39 h -5.0658 -5.0658 l -4.2174,12.25 c -2.3196,6.7375 -4.21,12.812 -4.2008,13.5 0.01,0.754 1.3787,1.25 3.4492,1.25 2.5544,0 3.595,-0.51171 4.0674,-2 z m 5.1892,-8.761 c -1.4688,-0.33183 -1.6827,-1.0068 -1.1324,-3.5741 1.0079,-4.7024 1.5883,-5.1876 3.0503,-2.5501 2.4451,4.4112 1.6559,6.9315 -1.9179,6.1241 z m 24.803,6.8067 c 0.36743,-2.1748 0.5843,-5.2123 0.48193,-6.75 -0.10237,-1.5377 -0.13844,-3.201 -0.0802,-3.6962 0.0583,-0.49527 2.4908,2.4297 5.4056,6.5 5.0021,6.985 5.5354,7.4178 9.5,7.708 l 4.2,0.31 v -13.56 -13.56 h -3.9562 -3.9562 l -0.29381,7.25 -0.29381,7.25 -5.4306,-7.25 c -5.0835,-6.7866 -5.6748,-7.25 -9.25,-7.25 h -3.82 v 13.5 13.5 h 3.4121 c 3.1949,0 3.4546,-0.25171 4.0802,-3.9542 z m 44.71,-1.3 0.3,-5.25 h 4 4 l 0.30226,5.25 0.30226,5.25 h 3.9477 3.9477 v -13.5 -13.5 h -4 -4 v 5 5 h -4.5 -4.5 v -5 -5 h -4 -4 v 13.5 13.5 h 3.9477 3.9477 l 0.30226,-5.25 z m 27.8,3.25 c 0,-1.7546 0.66667,-2 5.4326,-2 4.5544,0 5.5352,0.32333 6.0674,2 0.56405,1.7772 1.513,2 8.5177,2 h 7.883 l 0.68135,-6.0224 c 0.37475,-3.3123 1.0721,-6.2639 1.5497,-6.559 0.47756,-0.29516 0.8683,-0.0168 0.8683,0.61847 0,0.63531 0.70693,3.5869 1.571,6.559 1.4189,4.8808 1.8425,5.4039 4.376,5.4039 2.5914,0 2.9452,-0.48932 4.6452,-6.4254 1.0121,-3.534 2.1336,-6.244 2.4923,-6.0224 0.35868,0.22167 0.95875,3.1131 1.3335,6.4254 l 0.68135,6.0224 h 4.0177 c 3.3542,0 3.9334,-0.28901 3.5073,-1.75 -0.28076,-0.9625 -1.2898,-7.0595 -2.2424,-13.549 l -1.7319,-11.799 -4.0743,0.29895 -4.0743,0.29895 -1.9356,6.75 c -1.0646,3.7125 -2.2472,6.75 -2.628,6.75 -0.38078,0 -1.5093,-3.15 -2.5079,-7 l -1.8156,-7 h -4.1616 -4.1616 l -1.811,12.5 c -0.99606,6.875 -2.1199,12.5 -2.4974,12.5 -0.37748,0 -2.6094,-5.6466 -4.9598,-12.548 l -4.2735,-12.548 -5.1248,0.29792 -5.14,0.3 -4.1819,12 c -2.3,6.6 -4.2125,12.562 -4.25,13.25 -0.0438,0.80302 1.3622,1.25 3.9319,1.25 3.3333,0 4,-0.33333 4,-2 z m 3.5136,-8.978 c -0.61,-1 1.42,-8.02 2.33,-8.02 0.41052,0 1.2166,1.7615 1.7912,3.9144 0.98572,3.693 0.91123,3.9399 -1.3173,4.3659 -1.2991,0.24835 -2.5595,0.13216 -2.8007,-0.2582 z m 73.49,6.59 0.5,-3.8881 2.314,4.1381 c 2.17,3.88 2.59,4.14 6.74,4.14 h 4.4268 l -3.1674,-5.1477 -3.1674,-5.1477 2.4267,-1.965 c 1.92,-1.55 2.43,-2.91 2.43,-6.44 0,-6.65 -2.51,-8.3 -12.61,-8.3 h -7.89 v 13.56 13.56 l 3.75,-0.31036 c 3.5358,-0.29264 3.7786,-0.53244 4.25,-4.1985 z m 0,-13.61 c 0,-2.6834 0.32665,-3.0927 2.25,-2.8196 1.6481,0.23407 2.25,0.98831 2.25,2.8196 0,1.8312 -0.60188,2.5855 -2.25,2.8196 -1.92,0.27 -2.25,-0.14 -2.25,-2.82 z m 25,4.4425 v -13.558 l -4.1957,0.3075 -4.1957,0.3075 -0.26857,12.403 c -0.14772,6.8218 -0.0331,12.784 0.25468,13.25 0.28779,0.46566 2.2967,0.84665 4.4642,0.84665 h 3.96 v -13.56 z m -346,-26.94 c 0,-4.4032 0.90079,-4.4003 3.7592,0.0124 1.8695,2.886 2.8614,3.4876 5.75,3.4876 1.9199,0 3.4864,-0.3375 3.4811,-0.75 -0.005,-0.4125 -1.5803,-2.7258 -3.5,-5.1407 -1.919,-2.42 -3.49,-4.74 -3.49,-5.17 0,-0.43039 1.0232,-2.0546 2.2737,-3.6093 5.4346,-6.7564 5.36,-6.328 1.0987,-6.3144 -3.3539,0.0107 -4.2072,0.51288 -6.3724,3.75 l -2.501,3.73 -0.31,-3.75 c -0.28243,-3.4125 -0.57493,-3.75 -3.25,-3.75 h -2.94 v 10.5 10.5 h 3 c 2.7619,0 3,-0.27778 3,-3.5 z m 37,1 c 0,-2.1905 -0.43333,-2.5 -3.5,-2.5 -2.4444,0 -3.5,-0.45238 -3.5,-1.5 0,-1.04762 1.0556,-1.5 3.5,-1.5 3.0667,0 3.5,-0.30952 3.5,-2.5 0,-2.19048 -0.43333,-2.5 -3.5,-2.5 -2.4444,0 -3.5,-0.45238 -3.5,-1.5 0,-1.04762 1.0556,-1.5 3.5,-1.5 3.0667,0 3.5,-0.30952 3.5,-2.5 0,-2.4103 -0.23333,-2.5 -6.5,-2.5 h -6.5 v 10.5 10.5 h 6.5 c 6.2667,0 6.5,-0.0897 6.5,-2.5 z m 17.72,-2.75 0.87273,-5.25 1.8027,5.3066 c 1.4802,4.3571 2.1735,5.2517 3.8752,5 1.4468,-0.21401 2.5416,-1.6652 3.6263,-4.8066 l 1.5538,-4.5 0.94215,4.75 c 0.85823,4.3269 1.1944,4.75 3.7746,4.75 1.5578,0 2.8245,-0.3375 2.8149,-0.75 -0.01,-0.4125 -0.68289,-4.8 -1.4962,-9.75 -0.81331,-4.95 -1.4804,-9.366 -1.4825,-9.8134 -0.002,-0.44735 -1.4467,-0.67235 -3.2103,-0.5 -2.8658,0.28007 -3.3626,0.81798 -4.6756,5.0634 -0.808,2.6125 -1.755,4.75 -2.1045,4.75 -0.34946,0 -1.212,-2.25 -1.9168,-5 -1.2072,-4.7101 -1.4697,-5 -4.528,-5 h -3.2466 l -1.2398,8.75 c -0.68187,4.8125 -1.4597,9.5375 -1.7284,10.5 -0.38687,1.3855 0.13432,1.75 2.5025,1.75 2.8308,0 3.0379,-0.28132 3.8638,-5.25 z m 44.28,2.75 c 0,-2.1905 -0.43333,-2.5 -3.5,-2.5 -2.4444,0 -3.5,-0.45238 -3.5,-1.5 0,-1.04762 1.0556,-1.5 3.5,-1.5 3.0667,0 3.5,-0.30952 3.5,-2.5 0,-2.19048 -0.43333,-2.5 -3.5,-2.5 -2.4444,0 -3.5,-0.45238 -3.5,-1.5 0,-1.04762 1.0556,-1.5 3.5,-1.5 3.0667,0 3.5,-0.30952 3.5,-2.5 0,-2.4103 -0.23333,-2.5 -6.5,-2.5 h -6.5 v 10.5 10.5 h 6.5 c 6.2667,0 6.5,-0.0897 6.5,-2.5 z m 18,-3 c 0,-3.025 0.3375,-5.4903 0.75,-5.4784 0.4125,0.0119 2.5162,2.4869 4.6748,5.5 3.1658,4.419 4.4712,5.4784 6.75,5.4784 h 2.8252 v -10.5 -10.5 h -3 c -2.9831,0 -3,0.0322 -3,5.7106 v 5.7106 l -4.2263,-5.7571 c -3.7159,-5.0619 -4.5914,-5.7213 -7.25,-5.4606 -3.0234,0.29645 -3.0237,0.29713 -2.9208,6.5465 0.24078,14.619 0.1658,14.25 2.8971,14.25 2.3636,0 2.5,-0.3 2.5,-5.5 z m 37.792,-2.75 c 0.26111,-6.9284 0.49964,-7.75 2.25,-7.75 1.4218,0 1.9579,-0.68457 1.9579,-2.5 0,-2.4444 -0.16667,-2.5 -7.5,-2.5 -7.33333,0 -7.5,0.0556 -7.5,2.5 0,1.8333 0.53333,2.5 2,2.5 1.8182,0 2,0.66667 2,7.3333 0,4.0333 0.32066,7.654 0.71258,8.0459 0.39191,0.39192 1.8544,0.57942 3.25,0.41667 2.4436,-0.28497 2.5482,-0.58252 2.8295,-8.0459 z m 29.21,5.75 c 0,-2.1905 -0.43333,-2.5 -3.5,-2.5 -4.6408,0 -4.856,-2.7425 -0.25,-3.1866 2.4789,-0.23901 3.25,-0.7879 3.25,-2.3134 0,-1.5255 -0.77112,-2.0744 -3.25,-2.3134 -4.61,-0.45 -4.39,-3.19 0.25,-3.19 3.0667,0 3.5,-0.30952 3.5,-2.5 0,-2.4103 -0.23333,-2.5 -6.5,-2.5 h -6.5 v 10.5 10.5 h 6.5 c 6.2667,0 6.5,-0.0897 6.5,-2.5 z m 18,0 c 0,-1.375 0.37396,-2.5 0.83102,-2.5 0.45706,0 1.4331,1.125 2.169,2.5 1.0161,1.8985 2.1394,2.5 4.669,2.5 3.8392,0 4.0244,-0.55667 1.331,-4 -2.3643,-3.0226 -2.4758,-4.3602 -0.5,-6 0.825,-0.68469 1.5,-2.7393 1.5,-4.5657 0,-4.59 -2.92,-6.43 -10.22,-6.43 h -5.78 v 10.5 10.5 h 3 c 2.5333,0 3,-0.38889 3,-2.5 z m 0,-11.427 c 0,-1.43 0.64,-2.07 2.07,-2.07 2.5626,0 2.2719,3.3098 -0.3348,3.8118 -1.2,0.2311 -1.7385,-0.30742 -1.7385,-1.7385 z m 28.78,3.68 -0.28,-10.25 -3.25,-0.31336 -3.25,-0.31336 v 10.563 10.563 h 3.535 3.535 l -0.28499,-10.25 z m 17.505,8.25 c 0.38044,-1.4548 1.364,-2 3.6082,-2 2.0021,0 3.5236,0.70208 4.3342,2 1.2429,1.9902 6.7679,2.9072 6.7679,1.1232 0,-0.48222 -1.5223,-5.0947 -3.3829,-10.25 l -3.3829,-9.3732 -3.9373,-0.29871 -3.9373,-0.29871 -3.6343,10.549 -3.6342,10.549 h 3.3378 c 2.4968,0 3.4696,-0.50393 3.8608,-2 z m 2.2638,-8.25 c 1.4168,-4.631 2.0658,-4.8969 3.17,-1.299 1.0442,3.4024 0.98706,3.549 -1.3846,3.549 -2.1027,0 -2.3705,-0.33752 -1.7854,-2.25 z m 29.647,4.5 0.2999,-5.75 4,5.7382 c 3.4697,4.9774 4.4309,5.7397 7.25,5.75 l 3.26,0.01 v -10.5 -10.5 h -2.9501 c -2.8855,0 -2.9567,0.12439 -3.25,5.6827 l -0.2999,5.6827 -4.2824,-5.6827 c -3.52,-4.67 -4.81,-5.68 -7.25,-5.68 h -2.97 v 10.5 10.5 h 2.9501 c 2.89,0 2.9562,-0.11717 3.25,-5.75 z m -139.53,-46.64 c 0.0891,-0.0611 0.40909,-46.911 0.7111,-104.11 0.48847,-92.517 0.71901,-104.04 2.088,-104.32 1.3775,-0.28941 1.5389,10.648 1.5389,104.25 v 104.57 h 7 7 l 7.5e-4,-29.75 c 4.2e-4,-16.362 0.29946,-62.494 0.66454,-102.52 l 0.66378,-72.765 2.0855,0.64868 c 1.147,0.35678 3.77,1.9741 5.8289,3.594 l 3.7434,2.9453 0.25659,71.671 0.2566,71.671 h 42.5 42.5 l 0.29569,-6.75 0.29569,-6.75 h -35.046 -35.046 v -50.466 -50.466 l 10.673,-0.28383 10.673,-0.28383 1.2871,-5.6757 c 1.9074,-8.4106 5.0758,-14.395 11.02,-20.816 15.599,-16.848 41.473,-17.714 58.706,-1.9634 6.4676,5.911 12.058,16.078 13.131,23.882 l 0.69777,5.0734 h 6.9375 c 8.3641,0 8.6005,-0.35009 6.9715,-10.322 -3.6283,-22.211 -20.387,-39.698 -43.794,-45.697 l -5.0063,-1.2831 -1.1201,-6.0232 c -2.3767,-12.78 -11.238,-26.963 -21.652,-34.656 -9.1134,-6.7325 -17.497,-9.9411 -28.43,-10.881 l -7.41,-0.62 -1.69,-7.22 c -3.44,-14.66 -11.81,-26.96 -23.78,-34.94 -18.35,-12.221 -44.07,-12.65 -61.72,-1.02 -14.75,9.72 -22.29,20.66 -26.47,38.43 l -1.2344,5.25 -4.6503,0.0119 c -9.4302,0.0241 -22.716,5.0952 -31.889,12.172 -10.339,7.9762 -19.267,22.84 -20.839,34.691 -0.63848,4.8131 -0.88121,5.1579 -4.2994,6.1074 -1.9925,0.55346 -4.2143,1.0088 -4.9374,1.0119 -0.72304,0.003 -3.648,0.98798 -6.5,2.1887 -17.938,7.5523 -30.562,23.211 -34.395,42.663 -1.9531,9.9136 -1.8055,10.116 7.4138,10.138 l 6.2047,0.0153 0.62314,-3.75 c 3.1873,-19.181 15.828,-32.2 35.159,-36.213 12.202,-2.533 26.474,2.1831 36.331,12.005 6.2469,6.2247 9.6094,12.533 11.42,21.425 l 1.2288,6.0332 10.664,0.28383 10.664,0.28383 v 50.466 50.466 h -35 -35 v 7 7 h 43 43 v -71.916 -71.916 l 3.8095,-3.0172 c 2.0952,-1.6594 5.0202,-3.321 6.5,-3.6924 l 2.6905,-0.6753 v 101.91 c 0,77.298 0.2866,102.2 1.1868,103.1 0.79483,0.79483 3.0241,0.98014 6.75,0.5611 3.0598,-0.34412 5.6361,-0.67567 5.7252,-0.73678 z m -54.44,-192.91 c -6.28,-14.53 -21.27,-26.72 -38.22,-31.08 -4.405,-1.1341 -4.4952,-1.2387 -4.2719,-4.9574 0.12544,-2.0894 1.6537,-6.4736 3.3961,-9.7427 13.872,-26.026 48.26,-30.691 67.892,-9.2106 5.5181,6.0377 9.9096,14.318 10.694,20.164 l 0.53608,3.9968 -6.5683,2.9782 c -12.401,5.6231 -22.217,15.098 -27.872,26.903 -1.6466,3.4375 -3.0638,6.2423 -3.1495,6.2329 -0.0857,-0.009 -1.1809,-2.3871 -2.4339,-5.2837 z m 107.82,-2.1141 c -5.9581,-11.738 -16.102,-21.059 -28.486,-26.174 -4.9257,-2.0345 -5.0508,-2.1886 -4.8158,-5.9328 0.63979,-10.193 11.198,-24.221 22.309,-29.638 12.673,-6.1792 26.131,-6.0589 38.138,0.3407 10.341,5.5115 19.456,17.077 21.329,27.061 0.67362,3.5907 0.64524,3.6277 -3.6694,4.786 -16.761,4.4995 -29.894,14.695 -37.623,29.206 -1.8012,3.3818 -3.4188,6.2927 -3.5946,6.4686 -0.17589,0.17588 -1.7902,-2.5771 -3.5873,-6.1178 z m -52.405,-32.28 c -0.29235,-0.99278 -0.84545,-3.605 -1.2291,-5.805 -1.4225,-8.1572 -7.0128,-18.716 -13.879,-26.214 -6.8799,-7.5128 -7.8518,-8.2139 -18.53,-13.366 -3.575,-1.7251 -6.6278,-3.253 -6.784,-3.3955 -0.64383,-0.58728 1.9591,-9.9188 3.9455,-14.145 2.7289,-5.8054 10.68,-14.52 16.118,-17.665 7.6785,-4.4411 14.031,-5.942 23.523,-5.5573 7.2211,0.29262 9.823,0.88456 15.322,3.4858 11.187,5.2923 19.126,13.956 22.936,25.03 2.7621,8.0281 2.5867,8.8508 -2.3046,10.808 -17.499,7.0018 -29.904,21.582 -34.594,40.662 -1.7718,7.2082 -3.5155,9.5834 -4.5232,6.1614 z m -155.18,-35.04 c 1.395,-2.05 2.536,-4.03 2.536,-4.4 0,-0.36499 -2.2329,-2.0965 -4.9621,-3.8478 l -4.9621,-3.1842 2.6656,-4.1701 c 4.6077,-7.2082 3.0799,-14.297 -4.0458,-18.773 -4.2061,-2.6417 -10.808,-2.0731 -14.358,1.2367 -2.7492,2.5628 -11.683,15.854 -11.068,16.468 0.47288,0.47288 31.154,20.36 31.445,20.381 0.11767,0.009 1.3552,-1.6633 2.75,-3.716 z m -18.214,-18.39 c -3.8887,-2.4852 -3.946,-2.8782 -0.84435,-5.792 1.9903,-1.8698 2.7673,-2.0664 4.5,-1.1391 2.3491,1.2572 2.7551,4.7855 0.84435,7.3382 -1.157,1.5458 -1.4917,1.5155 -4.5,-0.40707 z m 348.91,12.074 c 6.7894,-4.9751 13.452,-9.8763 14.806,-10.892 l 2.4612,-1.8458 -2.8472,-4.1085 c -1.57,-2.25 -3.01,-4.1 -3.21,-4.1 -0.19457,0 -4.2939,2.8895 -9.1096,6.421 -4.8157,3.5316 -8.83,6.3441 -8.9206,6.25 -0.0906,-0.0941 1.5927,-5.571 3.7408,-12.171 2.148,-6.6 3.9077,-12.647 3.9104,-13.438 0.007,-2.067 -4.2644,-8.047 -5.7536,-8.055 -1.0924,-0.006 -25.28,17.09 -29.152,20.605 -1.2001,1.0894 -1.0064,1.8092 1.3009,4.8342 1.491,1.9548 3.2505,3.5355 3.91,3.5127 0.65951,-0.0228 4.7887,-2.6957 9.1761,-5.9397 4.3873,-3.244 8.094,-5.7812 8.237,-5.6381 0.14303,0.14303 -1.5274,5.6284 -3.7121,12.19 -2.1847,6.5613 -3.9788,12.562 -3.987,13.335 -0.0175,1.6601 4.7055,8.0944 5.9416,8.0944 0.47005,0 6.4096,-4.0706 13.199,-9.0457 z m -306.24,-25.64 c 3.89,-4.23 7.08,-8.24 7.08,-8.92 0,-0.68199 -1.205,-2.1878 -2.6778,-3.3463 l -2.6778,-2.1063 -4.1101,4.0338 c -4.487,4.4037 -5.6557,4.7974 -7.5315,2.5373 -1.0281,-1.2388 -0.61873,-2.1864 2.3776,-5.5029 1.995,-2.2 3.624,-4.31 3.624,-4.69 0,-1.16 -4.283,-5.31 -5.478,-5.31 -0.62124,0 -2.6561,1.575 -4.5219,3.5 -3.8491,3.9712 -3.8089,3.959 -6.4511,1.9609 -1.8857,-1.4261 -1.8104,-1.6188 2.25,-5.756 2.311,-2.35 4.201,-4.68 4.201,-5.17 0,-1.2948 -4.1531,-5.5265 -5.4243,-5.527 -0.59163,-2.41e-4 -4.5103,3.7123 -8.7081,8.25 l -7.633,8.25 13.133,12.7 c 7.2228,6.986 13.657,12.724 14.299,12.75 0.64158,0.0265 4.3541,-3.4112 8.25,-7.6393 z m 277.64,-18.468 c 3.5666,-9.4606 6.1374,-17.507 5.713,-17.882 -0.42442,-0.37448 -2.6698,-2.3586 -4.9898,-4.4092 l -4.2181,-3.7283 -17.032,10.214 c -9.3676,5.6177 -17.032,10.495 -17.032,10.838 5e-5,1.0086 6.7807,6.1234 8.1178,6.1234 0.67358,0 2.0386,-0.73659 3.0334,-1.6369 1.6937,-1.5328 2.1121,-1.3947 6.5787,2.1708 2.6235,2.0942 5.1725,4.1558 5.6644,4.5812 0.5169,0.44707 0.33551,2.1227 -0.4298,3.9704 -1.2837,3.0991 -1.2075,3.3037 2.4896,6.6919 3.283,3.0087 3.9395,3.2705 4.7168,1.8815 0.49664,-0.88745 3.8211,-9.354 7.3877,-18.815 z m -13.547,-3.543 -3.3903,-3.0292 5.7046,-3.7876 c 3.1375,-2.0832 5.9316,-3.5606 6.209,-3.2832 0.27745,0.27744 -0.76399,3.345 -2.3143,6.8169 l -2.8187,6.3124 -3.3903,-3.0292 z m -247.38,5.6171 c 1.85,-1.15 3.37,-2.57 3.37,-3.16 0,-0.5929 -2.7219,-5.052 -6.0486,-9.9092 l -6.0486,-8.8312 13.095,4.5557 13.095,4.5557 3.0979,-1.8149 c 6.0548,-3.5472 5.9976,-3.7526 -5.6216,-20.17 l -10.729,-15.16 -3.899,2.7576 c -2.1445,1.5167 -3.9086,3.1261 -3.9204,3.5765 -0.0117,0.4504 2.7207,4.6772 6.0721,9.3929 3.3514,4.7157 5.4889,8.3557 4.75,8.089 -0.73892,-0.26672 -6.5952,-2.2145 -13.014,-4.3284 l -11.67,-3.8435 -4.1606,2.7533 c -2.6917,1.7813 -3.9636,3.2666 -3.6026,4.2073 0.6006,1.5651 16.862,24.765 19.387,27.66 1.8983,2.176 1.7805,2.1827 5.8486,-0.33156 z m 229.68,-27.389 c 3.0477,-9.333 5.3201,-17.327 5.0498,-17.764 -0.27029,-0.43734 -2.3554,-1.7461 -4.6336,-2.9083 l -4.15,-2.114 -7.79,8.165 c -7.8368,8.2137 -8.8942,8.4272 -6.8754,1.3881 0.50302,-1.7539 1.2191,-6.0325 1.5913,-9.508 l 0.67671,-6.319 -4.2555,-2.3917 -4.2555,-2.3917 -1.7556,2.168 c -4.2715,5.2751 -21.142,29.247 -20.798,29.552 1.1613,1.028 6.973,3.5876 8.0822,3.5596 0.71481,-0.01803 3.7341,-3.6211 6.7096,-8.0067 2.9755,-4.3857 5.567,-7.8169 5.759,-7.6249 0.34347,0.34347 -2.2923,15.548 -3.2698,18.862 -0.34477,1.1689 0.49122,2.211 2.683,3.3444 l 3.1838,1.6464 7.8911,-7.8444 7.8911,-7.8444 -3.5384,9.9023 c -1.9461,5.4463 -3.4194,10.007 -3.274,10.135 1.6785,1.4753 8.3493,4.262 8.859,3.7008 0.36852,-0.40575 3.1636,-8.3738 6.2113,-17.707 z m -176.61,-2.132 c 7.0831,-3.4007 9.8164,-7.8751 9.7121,-15.899 -0.0429,-3.3 -0.57663,-7.1981 -1.1861,-8.6625 l -1.1082,-2.6625 -9.308,3.5004 c -5.1194,1.9252 -9.4618,3.6521 -9.6498,3.8376 -0.6,0.601 2.23,7.486 3.08,7.486 0.45717,0 2.4467,-0.675 4.4212,-1.5 4.55,-1.897 4.35,-1.939 4.35,0.927 0,2.6513 -3.8242,6.2394 -7.6819,7.2076 -3.6428,0.91429 -7.799,-1.3667 -10.167,-5.5799 -3.0993,-5.5145 -2.8305,-10.03 0.80446,-13.513 2.6648,-2.5531 3.4386,-2.7744 7.865,-2.2502 4.5943,0.54412 5.1174,0.3668 8.1507,-2.7627 l 3.2413,-3.3442 -2.6632,-1.745 c -4.56,-2.987 -11.55,-3.043 -17.88,-0.145 -13.531,6.1949 -16.531,21.893 -6.1638,32.261 6.8454,6.8454 14.088,7.6965 24.195,2.8437 z m 119.22,-7.3554 c 7.6329,-3.894 11.686,-11.444 10.845,-20.2 -0.78727,-8.1932 -8.6367,-16.103 -17.263,-17.397 -8.4744,-1.2708 -18.593,4.3318 -21.434,11.868 -1.8863,5.0032 -1.2997,13.778 1.1938,17.859 2.4182,3.9577 6.1444,7.2551 9.898,8.7589 4.1487,1.6621 12.643,1.2115 16.761,-0.88916 z m -12.92,-7.753 c -9.47,-3.481 -6.52,-20.291 3.55,-20.291 4.6566,0 6.3141,0.84543 7.9824,4.0715 4.6966,9.0823 -2.693,19.471 -11.537,16.219 z m -78.765,5.3206 c 0.40408,-0.61116 0.74158,-2.1151 0.75,-3.3422 0.0163,-2.3712 0.7545,-2.6731 9.2121,-3.7677 4.4776,-0.57952 4.7704,-0.46542 6.2757,2.4454 1.3348,2.5811 2.1549,3.0509 5.3032,3.038 7.288,-0.02996 7.2655,-0.23551 -2.1351,-19.513 l -8.6471,-17.732 -3.7467,0.61931 c -2.0607,0.34062 -4.9669,0.62426 -6.4582,0.63031 -2.2989,0.0093 -2.8521,0.58156 -3.6361,3.761 -1.89,7.719 -7.14,33.242 -7.14,34.777 0,1.3352 0.77542,1.4814 4.75,0.89557 2.6125,-0.38504 5.0806,-1.2001 5.4847,-1.8113 z m 3.3521,-19.342 c 0.39015,-2.6017 1.0296,-5.8642 1.4211,-7.25 0.65522,-2.3196 0.92131,-2.0533 3.3519,3.3548 3.58,7.965 3.47,8.625 -1.42,8.625 h -4.0613 l 0.70936,-4.7303 z m 43.48,10.98 c 0.10676,-9.6975 0.28284,-10.215 6.9119,-20.31 3.31,-5.038 6.02,-9.56 6.02,-10.049 0,-0.49 -2.62,-0.891 -5.83,-0.891 h -5.8291 l -2.3726,5.0656 c -1.3049,2.7861 -2.7256,5.2838 -3.1571,5.5504 -0.43145,0.26665 -2.0094,-2.0129 -3.5066,-5.0656 -2.5356,-5.1699 -2.965,-5.5514 -6.2639,-5.5641 -1.9479,-0.0075 -4.5542,-0.28499 -5.7917,-0.61663 -3.4134,-0.91477 -2.857,0.79926 3.75,11.551 l 6,9.7637 v 8.658 8.658 h 5 5 l 0.0743,-6.75 z"
       inkscape:connector-curvature="0"
       style="fill:#023559" />
  </g>
</svg>
